<svg width="172" height="117" viewBox="0 0 172 117" fill="none" xmlns="http://www.w3.org/2000/svg">
<path d="M75.5225 52.1788C74.7535 52.1788 73.9525 51.9865 73.2476 51.57C71.8058 50.7369 70.9727 49.263 70.9727 47.5969V6.55241C70.9727 4.88628 71.8378 3.41239 73.2476 2.57933C74.6895 1.74626 76.3876 1.74626 77.8295 2.57933L113.363 23.0856C114.805 23.9186 115.638 25.3925 115.638 27.0586C115.638 28.7248 114.773 30.1987 113.363 31.0317L77.8295 51.538C77.0925 51.9545 76.3236 52.1788 75.5225 52.1788ZM75.5546 4.85424C75.1701 4.85424 74.8497 4.9824 74.6895 5.07852C74.4331 5.23873 73.8564 5.65526 73.8564 6.55241V47.5969C73.8564 48.462 74.4331 48.9106 74.6895 49.0708C74.9458 49.231 75.6187 49.5194 76.3876 49.0708L111.921 28.5646C112.69 28.116 112.754 27.4111 112.754 27.0907C112.754 26.7703 112.658 26.0654 111.921 25.6168L76.3876 5.07852C76.0672 4.91832 75.8109 4.85424 75.5546 4.85424Z" fill="url(#paint0_linear_119_4)"/>
<path d="M74.305 50.2242C73.536 50.2242 72.7349 50.032 72.03 49.6155C70.5882 48.7824 69.7551 47.3085 69.7551 45.6424V4.59788C69.7551 2.93175 70.6202 1.45786 72.03 0.624799C73.4719 -0.208266 75.1701 -0.208266 76.6119 0.624799L112.145 21.131C113.587 21.9641 114.42 23.438 114.42 25.1041C114.42 26.7702 113.555 28.2441 112.145 29.0772L76.6119 49.5834C75.875 50.032 75.106 50.2242 74.305 50.2242ZM74.337 2.89971C73.9525 2.89971 73.6321 3.02787 73.4719 3.124C73.2156 3.2842 72.6388 3.70073 72.6388 4.59788V45.6424C72.6388 46.5075 73.2156 46.9561 73.4719 47.1163C73.7282 47.2765 74.4011 47.5648 75.1701 47.1163L110.704 26.61C111.472 26.1615 111.537 25.4566 111.537 25.1362C111.537 24.8157 111.44 24.1108 110.704 23.6623L75.1701 3.15604C74.8497 2.96379 74.5613 2.89971 74.337 2.89971Z" fill="url(#paint1_linear_119_4)"/>
<path d="M108.172 33.8192L97.086 28.116C96.8618 27.9878 96.5734 28.0198 96.3811 28.148C96.1569 28.2762 96.0607 28.5325 96.0607 28.7888L97.1181 40.1954L98.4638 39.4264L97.5667 29.9423L106.73 34.6523L108.172 33.8192Z" fill="#797386"/>
<path d="M112.338 36.4466C112.306 36.735 112.145 36.9593 111.889 37.0554L106.794 38.9458L111.248 45.5463C111.344 45.7065 111.376 45.8987 111.344 46.0589C111.312 46.2512 111.216 46.4114 111.056 46.5075L107.916 48.6222C107.756 48.7183 107.563 48.7504 107.403 48.7183C107.243 48.6863 107.051 48.5902 106.955 48.43L102.501 41.8295L98.8163 45.8987C98.624 46.091 98.3357 46.1871 98.0793 46.091C97.823 45.9948 97.6308 45.7706 97.5987 45.4822L97.1181 40.1954L98.4638 39.4264L98.8804 43.784L102.052 40.2595C102.181 40.0993 102.405 40.0032 102.629 40.0352C102.661 40.0352 102.693 40.0352 102.725 40.0352C102.918 40.0673 103.078 40.1634 103.174 40.3236L107.724 47.0842L109.71 45.7385L105.16 38.9779C105.032 38.7856 105 38.5613 105.064 38.3691C105.128 38.1768 105.289 38.0166 105.481 37.9205L109.934 36.2864L106.73 34.6523L108.172 33.8193L111.985 35.7738C112.209 35.9019 112.37 36.1583 112.338 36.4466Z" fill="#797386"/>
<path d="M111.216 35.6776C111.184 35.966 111.024 36.1903 110.768 36.2864L105.673 38.1768L110.127 44.7773C110.223 44.9375 110.255 45.1297 110.223 45.2899C110.191 45.4822 110.095 45.6424 109.935 45.7385L106.794 47.8532C106.634 47.9493 106.442 47.9814 106.282 47.9493C106.09 47.9173 105.929 47.8212 105.833 47.6609L101.38 41.0605L97.7269 45.0977C97.5346 45.2899 97.2463 45.386 96.9899 45.2899C96.7336 45.1938 96.5414 44.9695 96.5093 44.6811L96.0287 39.3944L97.3744 38.6254L97.791 42.983L100.963 39.4585C101.091 39.2983 101.315 39.2021 101.54 39.2342C101.572 39.2342 101.604 39.2342 101.636 39.2342C101.828 39.2662 101.988 39.3623 102.084 39.5225L106.634 46.2832L108.621 44.9375L104.071 38.1768C103.943 37.9846 103.911 37.7603 103.975 37.568C104.039 37.3758 104.199 37.2156 104.391 37.1195L108.845 35.4854L105.641 33.8513L96.4773 29.1413L97.3744 38.6254L96.0287 39.3944L94.9714 27.9878C94.9393 27.7315 95.0675 27.4751 95.2918 27.347C95.5161 27.2188 95.7724 27.1868 95.9967 27.3149L107.083 33.0182L110.896 34.9727C111.056 35.1329 111.216 35.3893 111.216 35.6776Z" fill="white"/>
<path d="M1.92437 96.0749C1.86029 91.5251 3.4303 87.6161 6.6344 84.2838C9.87053 80.9836 13.9397 79.3175 18.9061 79.2534C24.9939 79.0932 28.9029 81.6244 30.6651 86.9112C27.8776 88.0967 25.09 89.2502 22.3024 90.4037C21.9179 88.0006 20.4441 86.8151 17.9128 86.8792C15.734 86.9432 14.0359 87.7763 12.7863 89.4104C11.5367 91.0445 10.9279 92.9029 10.9279 95.0176C10.9279 96.5876 11.3124 97.8051 12.0814 98.7023C12.8503 99.5994 14.0038 100.016 15.4777 99.9839C17.7847 99.9198 19.6751 98.6702 21.1169 96.2031C23.552 97.2284 25.9551 98.2217 28.3902 99.2149C26.628 102.035 24.6094 104.117 22.3665 105.463C20.1236 106.809 17.4322 107.514 14.2922 107.578C10.5434 107.642 7.53154 106.552 5.28867 104.341C3.0458 102.163 1.92437 99.3751 1.92437 96.0749Z" fill="#797386"/>
<path d="M31.1778 106.68C33.645 93.768 36.1441 80.8554 38.6433 67.9429C41.6552 67.8148 44.635 67.6546 47.6469 67.4944C45.1797 80.4389 42.6805 93.3514 40.2134 106.296C37.2015 106.424 34.1896 106.552 31.1778 106.68Z" fill="#797386"/>
<path d="M46.4933 105.976C48.2556 96.7798 50.0179 87.552 51.7801 78.3563C54.792 78.196 57.7718 78.0038 60.7836 77.8436C59.0214 87.0714 57.2591 96.2992 55.4969 105.495C52.485 105.655 49.4732 105.815 46.4933 105.976ZM54.0871 73.454C53.0617 72.4928 52.5811 71.2432 52.5811 69.7693C52.5811 68.2954 53.0938 67.0137 54.0871 65.9244C55.1124 64.835 56.362 64.2582 57.8999 64.1621C59.4059 64.066 60.6875 64.5146 61.7128 65.4758C62.7381 66.437 63.2187 67.6866 63.2187 69.1605C63.2187 70.6344 62.7061 71.9481 61.7128 73.0374C60.6875 74.1268 59.4379 74.7356 57.8999 74.7997C56.362 74.8638 55.1124 74.4152 54.0871 73.454Z" fill="#797386"/>
<path d="M59.47 116.325C61.9692 103.38 64.4684 90.4036 66.9676 77.4271C69.9794 77.2348 72.9592 77.0426 75.9711 76.8503C75.8109 77.6513 75.6507 78.4203 75.4905 79.2213C77.4129 77.2668 79.7519 76.1775 82.5395 75.9852C85.4552 75.793 87.8262 76.6581 89.5885 78.6126C91.3507 80.5671 92.2479 83.2585 92.2479 86.751C92.312 91.3649 90.9342 95.4341 88.0826 98.9586C85.2309 102.483 81.5782 104.341 77.0925 104.566C74.6574 104.726 72.6068 104.181 70.9086 102.9C70.8125 103.444 70.6843 103.989 70.5882 104.534C69.8833 108.283 69.1784 111.999 68.4735 115.748C65.4937 115.94 62.4818 116.133 59.47 116.325ZM83.2764 88.5773C83.2764 87.0073 82.924 85.8218 82.187 84.9567C81.4501 84.0916 80.4888 83.7071 79.2713 83.8032C77.3168 83.9314 75.7468 84.8285 74.5292 86.5267C73.3117 88.2249 72.7029 90.1794 72.7029 92.3582C72.7029 93.9602 73.1194 95.1457 73.9204 95.9147C74.7215 96.6837 75.8749 97.0361 77.3168 96.94C79.047 96.8118 80.4888 95.9467 81.6103 94.2806C82.6997 92.6145 83.2764 90.7241 83.2764 88.5773Z" fill="#797386"/>
<path d="M94.3306 102.996C95.6442 96.0749 96.99 89.1541 98.3036 82.2332C97.3424 82.2973 96.3812 82.3614 95.42 82.4255C95.8685 80.1185 96.3171 77.8116 96.7657 75.5046C97.7269 75.4405 98.6881 75.3765 99.6494 75.3124C99.6814 75.1201 99.7134 74.8958 99.7455 74.7036C100.322 71.3393 101.668 68.6799 103.751 66.7254C105.833 64.7709 108.621 63.6815 112.049 63.4572C117.176 63.1368 122.334 62.8484 127.461 62.5921C124.994 75.5367 122.495 88.4812 120.027 101.426C117.016 101.586 114.036 101.778 111.024 101.938C113.043 91.3329 115.093 80.7273 117.112 70.0897C115.542 70.1858 113.972 70.2819 112.402 70.3781C111.344 70.4421 110.543 70.7305 109.999 71.2432C109.454 71.7558 109.069 72.5568 108.845 73.6142C108.781 73.9667 108.685 74.3511 108.621 74.7036C110.383 74.6075 112.145 74.4793 113.876 74.3832C113.427 76.6901 112.978 78.9971 112.53 81.304C110.768 81.4002 109.005 81.5283 107.275 81.6244C105.961 88.5453 104.616 95.4661 103.302 102.387C100.322 102.611 97.3104 102.804 94.3306 102.996Z" fill="#797386"/>
<path d="M126.211 101.073C127.974 91.8775 129.736 82.6497 131.498 73.454C134.51 73.3258 137.49 73.1656 140.502 73.0695C138.739 82.2653 136.977 91.461 135.215 100.657C132.203 100.785 129.191 100.913 126.211 101.073ZM133.805 68.6158C132.78 67.6225 132.299 66.405 132.299 64.899C132.299 63.4252 132.812 62.1435 133.805 61.0541C134.83 59.9647 136.08 59.388 137.618 59.3559C139.124 59.2919 140.405 59.7725 141.431 60.7337C142.456 61.727 142.937 62.9766 142.937 64.4505C142.937 65.9244 142.424 67.206 141.431 68.2954C140.405 69.3527 139.156 69.9295 137.618 69.9936C136.08 70.0576 134.83 69.577 133.805 68.6158Z" fill="#797386"/>
<path d="M139.22 111.551C141.719 98.6382 144.218 85.7257 146.718 72.8452C149.729 72.7491 152.709 72.653 155.721 72.5889C155.561 73.3579 155.401 74.1589 155.24 74.9279C157.163 73.0374 159.502 72.0762 162.289 72.0442C165.205 72.0121 167.576 73.0054 169.338 75.0881C171.101 77.1387 171.998 79.9263 171.998 83.3867C172.062 88.0326 170.684 92.0057 167.833 95.338C164.981 98.6702 161.328 100.336 156.843 100.368C154.407 100.432 152.357 99.7917 150.659 98.446C150.562 98.9906 150.434 99.5353 150.338 100.08C149.633 103.797 148.928 107.514 148.223 111.23C145.212 111.294 142.2 111.423 139.22 111.551ZM162.994 84.6683C162.994 83.0983 162.642 81.8808 161.905 80.9836C161.168 80.0865 160.207 79.6379 158.989 79.6699C157.035 79.702 155.465 80.535 154.247 82.2012C153.03 83.8353 152.421 85.7577 152.421 87.9685C152.421 89.5706 152.837 90.7561 153.638 91.5571C154.439 92.3582 155.593 92.7427 157.035 92.7427C158.765 92.7106 160.207 91.8776 161.328 90.2755C162.418 88.6735 162.994 86.8151 162.994 84.6683Z" fill="#797386"/>
<path d="M0.00188476 93.8641C-0.0621972 89.3142 1.50781 85.4053 4.71191 82.105C7.94805 78.8048 12.0173 77.1707 16.9836 77.1066C23.0714 76.9464 26.9804 79.4777 28.7426 84.7965C25.9551 85.9499 23.1675 87.1355 20.3799 88.2569C19.9955 85.8538 18.5216 84.6683 15.9903 84.7324C13.8115 84.7644 12.1134 85.6295 10.8638 87.2316C9.61418 88.8657 9.0054 90.7241 9.0054 92.8067C9.0054 94.3767 9.38989 95.5943 10.1589 96.4914C10.9279 97.3886 12.0813 97.8051 13.5552 97.8051C15.8622 97.7731 17.7526 96.4914 19.1944 94.0563C21.6295 95.0816 24.0326 96.0749 26.4677 97.1002C24.7055 99.9198 22.6869 102.002 20.444 103.348C18.2012 104.694 15.5097 105.399 12.3697 105.463C8.62091 105.527 5.60906 104.438 3.36619 102.195C1.12332 99.9198 0.00188476 97.1322 0.00188476 93.8641Z" fill="white"/>
<path d="M29.2874 104.502C31.7545 91.5892 34.2537 78.7087 36.7209 65.7641C39.7327 65.636 42.7125 65.4758 45.7244 65.3156C43.2572 78.2601 40.758 91.1726 38.2909 104.085C35.279 104.277 32.2672 104.406 29.2874 104.502Z" fill="white"/>
<path d="M44.5709 103.829C46.3331 94.633 48.0954 85.4052 49.8576 76.2095C52.8695 76.0493 55.8493 75.8891 58.8611 75.6968C57.0989 84.9246 55.3366 94.1524 53.5744 103.348C50.5625 103.508 47.5507 103.669 44.5709 103.829ZM52.1646 71.3392C51.1393 70.378 50.6586 69.1284 50.6586 67.6545C50.6586 66.1806 51.1713 64.899 52.1646 63.8096C53.1899 62.7202 54.4395 62.1435 55.9774 62.0474C57.4834 61.9512 58.765 62.3998 59.7903 63.361C60.8156 64.3223 61.2963 65.5719 61.2963 67.0457C61.2963 68.5196 60.7836 69.8333 59.7903 70.9227C58.765 72.0121 57.5154 72.6209 55.9774 72.685C54.4395 72.749 53.1899 72.3005 52.1646 71.3392Z" fill="white"/>
<path d="M57.5475 114.178C60.0467 101.233 62.5459 88.2569 65.0451 75.3123C68.0569 75.1201 71.0367 74.9278 74.0486 74.7356C73.8884 75.5366 73.7282 76.3056 73.568 77.1066C75.4904 75.1521 77.8294 74.0627 80.617 73.8705C83.5327 73.6782 85.9038 74.5434 87.666 76.4979C89.4283 78.4524 90.3254 81.1438 90.3254 84.6363C90.3895 89.2502 89.0117 93.3194 86.1601 96.8439C83.3084 100.368 79.6558 102.227 75.17 102.451C72.7349 102.611 70.6843 102.067 68.9861 100.785C68.89 101.33 68.7618 101.874 68.6657 102.419C67.9608 106.168 67.2559 109.885 66.551 113.633C63.5712 113.826 60.5593 114.018 57.5475 114.178ZM81.3539 86.4626C81.3539 84.8926 81.0015 83.7071 80.2645 82.842C79.5276 81.9769 78.5664 81.5924 77.3488 81.6885C75.3943 81.8167 73.8243 82.7138 72.6067 84.412C71.3892 86.1101 70.7804 88.0326 70.7804 90.2434C70.7804 91.8455 71.1969 93.031 71.998 93.8C72.799 94.569 73.9525 94.9214 75.3943 94.8253C77.1245 94.6971 78.5664 93.832 79.6878 92.1659C80.7772 90.4998 81.3539 88.6093 81.3539 86.4626Z" fill="white"/>
<path d="M92.4081 100.881C93.7218 93.9602 95.0675 87.0393 96.3812 80.1185C95.4199 80.1826 94.4587 80.2466 93.4975 80.3107C93.946 78.0038 94.3946 75.6968 94.8432 73.3899C95.8044 73.3258 96.7657 73.2617 97.7269 73.1976C97.7589 73.0054 97.791 72.7811 97.823 72.5888C98.3997 69.2245 99.7455 66.5651 101.828 64.6106C103.911 62.6561 106.698 61.5667 110.127 61.3425C115.253 61.0221 120.412 60.7337 125.538 60.4774C123.071 73.4219 120.572 86.3665 118.105 99.311C115.093 99.4712 112.113 99.6635 109.101 99.8557C111.12 89.2502 113.171 78.6126 115.189 68.007C113.619 68.1031 112.049 68.1992 110.479 68.2954C109.422 68.3594 108.621 68.6478 108.076 69.1605C107.531 69.6731 107.147 70.4741 106.923 71.5315C106.859 71.8839 106.762 72.2684 106.698 72.6209C108.461 72.5248 110.223 72.3966 111.953 72.3005C111.505 74.6074 111.056 76.9144 110.607 79.2213C108.845 79.3175 107.083 79.4456 105.353 79.5417C104.039 86.4626 102.693 93.3834 101.38 100.304C98.3997 100.497 95.3879 100.689 92.4081 100.881Z" fill="white"/>
<path d="M124.289 98.9265C126.051 89.7308 127.813 80.503 129.576 71.3072C132.587 71.147 135.567 71.0189 138.579 70.8907C136.817 80.0865 135.055 89.2822 133.292 98.478C130.28 98.6382 127.301 98.7663 124.289 98.9265ZM131.883 66.437C130.857 65.4437 130.377 64.2262 130.377 62.7523C130.377 61.2784 130.889 59.9968 131.883 58.9074C132.908 57.818 134.157 57.2412 135.695 57.1771C137.201 57.1131 138.483 57.5616 139.508 58.5549C140.534 59.5482 141.014 60.7978 141.014 62.2717C141.014 63.7455 140.502 65.0272 139.508 66.1166C138.483 67.1739 137.233 67.7507 135.695 67.8148C134.157 67.8788 132.908 67.4303 131.883 66.437Z" fill="white"/>
<path d="M137.297 109.372C139.797 96.4594 142.296 83.5469 144.795 70.6664C147.807 70.5703 150.787 70.4742 153.799 70.4101C153.638 71.1791 153.478 71.9801 153.318 72.7491C155.24 70.8586 157.579 69.8654 160.367 69.8333C163.283 69.8013 165.654 70.7946 167.416 72.8452C169.178 74.8958 170.075 77.6513 170.075 81.1438C170.139 85.7897 168.762 89.7628 165.91 93.0951C163.058 96.4594 159.406 98.1255 154.92 98.1576C152.485 98.2216 150.434 97.5808 148.736 96.2671C148.64 96.8118 148.512 97.3565 148.416 97.9012C147.711 101.618 147.006 105.335 146.301 109.051C143.289 109.148 140.277 109.244 137.297 109.372ZM161.072 82.4575C161.072 80.8875 160.719 79.6699 159.983 78.7728C159.246 77.8756 158.284 77.4591 157.067 77.4591C155.112 77.4911 153.542 78.3562 152.325 79.9903C151.107 81.6244 150.498 83.5469 150.498 85.7577C150.498 87.3598 150.915 88.5453 151.716 89.3463C152.517 90.1473 153.67 90.5318 155.112 90.4998C156.842 90.4677 158.284 89.6347 159.406 88.0326C160.495 86.4626 161.072 84.6042 161.072 82.4575Z" fill="white"/>
<defs>
<linearGradient id="paint0_linear_119_4" x1="62.6886" y1="19.647" x2="106.16" y2="44.7452" gradientUnits="userSpaceOnUse">
<stop offset="2.98356e-07" stop-color="#792740"/>
<stop offset="0.7829" stop-color="#794140"/>
<stop offset="1" stop-color="#794940"/>
</linearGradient>
<linearGradient id="paint1_linear_119_4" x1="61.4644" y1="17.7101" x2="104.936" y2="42.8085" gradientUnits="userSpaceOnUse">
<stop stop-color="#FE4050"/>
<stop offset="0.3337" stop-color="#FE5A50"/>
<stop offset="1" stop-color="#FF9850"/>
</linearGradient>
</defs>
</svg>
